<svg width="115" height="142" viewBox="0 0 115 142" fill="none" xmlns="http://www.w3.org/2000/svg">
<rect x="18" y="10" width="78.5476" height="105.818" rx="3" fill="#2EB0C1"/>
<rect x="62.5173" y="26.0591" width="24.0619" height="24.0228" stroke="white" stroke-width="2"/>
<rect x="28.6365" y="26.0591" width="24.0619" height="24.0228" stroke="white" stroke-width="2"/>
<rect x="41.1849" y="37.3339" width="34.3905" height="34.3299" stroke="white" stroke-width="2"/>
<rect x="62.5173" y="57.378" width="24.0619" height="24.0228" stroke="white" stroke-width="2"/>
<rect x="28.6365" y="57.378" width="24.0619" height="24.0228" stroke="white" stroke-width="2"/>
<path d="M28.6367 105.858C29.143 105.858 29.6286 106.042 29.9867 106.369C30.3447 106.696 30.5458 107.139 30.5458 107.601C30.5458 108.063 30.5458 125.03 30.5458 125.03C30.5458 125.955 30.9481 126.841 31.6642 127.495C32.3802 128.149 33.3514 128.516 34.3641 128.516H80.1836C81.1962 128.516 82.1674 128.149 82.8835 127.495C83.5996 126.841 84.0018 125.955 84.0018 125.03C84.0018 125.03 84.0018 109.308 84.0018 108.846C84.0018 108.384 84.203 107.941 84.561 107.614C84.919 107.287 85.4046 107.103 85.911 107.103C86.4173 107.103 86.9029 107.287 87.261 107.614C87.619 107.941 87.8201 108.384 87.8201 108.846V125.03C87.8201 126.879 87.0156 128.652 85.5834 129.96C84.1513 131.267 82.2089 132.002 80.1836 132.002H34.3641C32.3388 132.002 30.3964 131.267 28.9642 129.96C27.5321 128.652 26.7275 126.879 26.7275 125.03V107.601C26.7275 107.139 26.9287 106.696 27.2867 106.369C27.6447 106.042 28.1303 105.858 28.6367 105.858Z" fill="white"/>
<path d="M57.4649 121.854C57.6241 122.013 57.8133 122.14 58.0216 122.226C58.2299 122.312 58.4531 122.357 58.6786 122.357C58.9041 122.357 59.1274 122.312 59.3357 122.226C59.544 122.14 59.7331 122.013 59.8924 121.854L70.1784 111.583C70.5003 111.262 70.6811 110.826 70.6811 110.371C70.6811 109.917 70.5003 109.481 70.1784 109.159C69.8565 108.838 69.4199 108.657 68.9646 108.657C68.5094 108.657 68.0728 108.838 67.7509 109.159L60.393 116.51V94.0316C60.393 93.5777 60.2124 93.1423 59.8909 92.8212C59.5694 92.5002 59.1333 92.3199 58.6786 92.3199C58.224 92.3199 57.7879 92.5002 57.4664 92.8212C57.1449 93.1423 56.9643 93.5777 56.9643 94.0316V116.51L49.6064 109.159C49.2845 108.838 48.8479 108.657 48.3926 108.657C47.9374 108.657 47.5008 108.838 47.1789 109.159C46.857 109.481 46.6761 109.917 46.6761 110.371C46.6761 110.826 46.857 111.262 47.1789 111.583L57.4649 121.854Z" fill="white"/>
</svg>
